<svg width="326" height="326" viewBox="0 0 326 326" fill="none" xmlns="http://www.w3.org/2000/svg">
<rect width="326" height="326" rx="10" fill="#F4F4F4"/>
<path d="M116.275 205.37V195.29H117.595V205.37H116.275ZM119.887 205.37V197.915H121.102V198.56H121.177C121.947 198.03 122.702 197.765 123.442 197.765C124.272 197.765 124.867 198.04 125.227 198.59H125.302C126.142 198.04 126.967 197.765 127.777 197.765C129.147 197.765 129.832 198.45 129.832 199.82V205.37H128.572V200.09C128.572 199.65 128.477 199.34 128.287 199.16C128.097 198.97 127.757 198.875 127.267 198.875C126.767 198.875 126.167 199.045 125.467 199.385C125.487 199.565 125.497 199.71 125.497 199.82V205.37H124.222V200.09C124.222 199.65 124.127 199.34 123.937 199.16C123.747 198.97 123.412 198.875 122.932 198.875C122.412 198.875 121.822 199.04 121.162 199.37V205.37H119.887ZM133.656 205.505C132.956 205.505 132.396 205.325 131.976 204.965C131.556 204.605 131.346 204.08 131.346 203.39C131.346 202.13 132.096 201.405 133.596 201.215L135.576 200.975V200.285C135.576 199.725 135.441 199.35 135.171 199.16C134.911 198.97 134.436 198.875 133.746 198.875C133.256 198.875 132.661 198.945 131.961 199.085V198.17C132.671 197.9 133.431 197.765 134.241 197.765C135.971 197.765 136.836 198.5 136.836 199.97V205.37H135.816L135.681 204.74H135.606C135.146 205.25 134.496 205.505 133.656 205.505ZM133.971 204.515C134.671 204.515 135.206 204.345 135.576 204.005V201.95L133.926 202.115C133.486 202.165 133.166 202.285 132.966 202.475C132.766 202.665 132.666 202.96 132.666 203.36C132.666 203.74 132.781 204.03 133.011 204.23C133.251 204.42 133.571 204.515 133.971 204.515ZM141.453 207.575C139.203 207.575 138.078 207.035 138.078 205.955C138.078 205.585 138.203 205.275 138.453 205.025C138.713 204.765 139.053 204.575 139.473 204.455V204.38C138.973 204.19 138.723 203.89 138.723 203.48C138.723 202.99 139.008 202.54 139.578 202.13C138.958 201.74 138.648 201.14 138.648 200.33V200.18C138.648 199.43 138.908 198.84 139.428 198.41C139.958 197.98 140.643 197.765 141.483 197.765C141.873 197.765 142.238 197.81 142.578 197.9H145.113V198.86H143.838C144.148 199.18 144.303 199.6 144.303 200.12V200.27C144.303 201.03 144.038 201.61 143.508 202.01C142.988 202.41 142.308 202.61 141.468 202.61C141.028 202.61 140.618 202.55 140.238 202.43C140.028 202.59 139.923 202.78 139.923 203C139.923 203.18 139.978 203.305 140.088 203.375C140.198 203.445 140.378 203.48 140.628 203.48H142.668C144.248 203.48 145.038 204.11 145.038 205.37C145.038 206.84 143.843 207.575 141.453 207.575ZM141.423 206.57C142.263 206.57 142.853 206.495 143.193 206.345C143.533 206.195 143.703 205.935 143.703 205.565C143.703 205.255 143.608 205.03 143.418 204.89C143.228 204.75 142.898 204.68 142.428 204.68H140.328C139.728 204.89 139.428 205.255 139.428 205.775C139.428 206.095 139.573 206.305 139.863 206.405C140.163 206.515 140.683 206.57 141.423 206.57ZM141.468 201.65C142.518 201.65 143.043 201.21 143.043 200.33V200.105C143.043 199.645 142.903 199.3 142.623 199.07C142.343 198.84 141.958 198.725 141.468 198.725C140.978 198.725 140.598 198.845 140.328 199.085C140.058 199.325 139.923 199.655 139.923 200.075V200.3C139.923 201.2 140.438 201.65 141.468 201.65ZM149.418 205.505C148.258 205.505 147.373 205.175 146.763 204.515C146.163 203.845 145.863 202.925 145.863 201.755V201.53C145.863 200.3 146.173 199.365 146.793 198.725C147.423 198.085 148.208 197.765 149.148 197.765C151.158 197.765 152.163 198.94 152.163 201.29V202.01H147.183C147.223 202.87 147.448 203.485 147.858 203.855C148.268 204.225 148.858 204.41 149.628 204.41C150.458 204.41 151.228 204.22 151.938 203.84V204.785C151.308 205.265 150.468 205.505 149.418 205.505ZM149.088 198.8C148.598 198.8 148.168 198.97 147.798 199.31C147.438 199.64 147.233 200.195 147.183 200.975H150.813C150.813 200.215 150.668 199.665 150.378 199.325C150.098 198.975 149.668 198.8 149.088 198.8ZM157.636 207.605V197.915H158.851V198.515H158.926C159.446 198.015 160.161 197.765 161.071 197.765C161.971 197.765 162.701 198.05 163.261 198.62C163.831 199.18 164.116 200.1 164.116 201.38V201.575C164.116 202.905 163.821 203.89 163.231 204.53C162.651 205.16 161.826 205.475 160.756 205.475C160.046 205.475 159.431 205.315 158.911 204.995V207.605H157.636ZM160.651 204.44C162.091 204.44 162.811 203.545 162.811 201.755V201.425C162.811 200.465 162.641 199.8 162.301 199.43C161.961 199.05 161.436 198.86 160.726 198.86C159.966 198.86 159.361 199.03 158.911 199.37V203.93C159.311 204.27 159.891 204.44 160.651 204.44ZM165.737 205.37V197.915H166.952V198.74H167.027C167.237 198.48 167.527 198.265 167.897 198.095C168.277 197.915 168.662 197.825 169.052 197.825C169.262 197.825 169.417 197.845 169.517 197.885V199.025C169.307 198.995 169.117 198.98 168.947 198.98C168.237 198.98 167.592 199.17 167.012 199.55V205.37H165.737ZM173.924 205.505C172.764 205.505 171.879 205.175 171.269 204.515C170.669 203.845 170.369 202.925 170.369 201.755V201.53C170.369 200.3 170.679 199.365 171.299 198.725C171.929 198.085 172.714 197.765 173.654 197.765C175.664 197.765 176.669 198.94 176.669 201.29V202.01H171.689C171.729 202.87 171.954 203.485 172.364 203.855C172.774 204.225 173.364 204.41 174.134 204.41C174.964 204.41 175.734 204.22 176.444 203.84V204.785C175.814 205.265 174.974 205.505 173.924 205.505ZM173.594 198.8C173.104 198.8 172.674 198.97 172.304 199.31C171.944 199.64 171.739 200.195 171.689 200.975H175.319C175.319 200.215 175.174 199.665 174.884 199.325C174.604 198.975 174.174 198.8 173.594 198.8ZM180.242 205.37L177.497 197.915H178.877L180.887 203.75H180.947L183.017 197.915H184.262L181.532 205.37H180.242ZM185.601 205.37V197.915H186.891V205.37H185.601ZM185.601 196.445V195.11H186.906V196.445H185.601ZM192.059 205.505C190.899 205.505 190.014 205.175 189.404 204.515C188.804 203.845 188.504 202.925 188.504 201.755V201.53C188.504 200.3 188.814 199.365 189.434 198.725C190.064 198.085 190.849 197.765 191.789 197.765C193.799 197.765 194.804 198.94 194.804 201.29V202.01H189.824C189.864 202.87 190.089 203.485 190.499 203.855C190.909 204.225 191.499 204.41 192.269 204.41C193.099 204.41 193.869 204.22 194.579 203.84V204.785C193.949 205.265 193.109 205.505 192.059 205.505ZM191.729 198.8C191.239 198.8 190.809 198.97 190.439 199.31C190.079 199.64 189.874 200.195 189.824 200.975H193.454C193.454 200.215 193.309 199.665 193.019 199.325C192.739 198.975 192.309 198.8 191.729 198.8ZM197.806 205.37L195.691 197.915H197.056L198.526 203.735H198.571L200.296 197.915H201.406L203.146 203.735H203.206L204.661 197.915H205.891L203.776 205.37H202.501L200.836 199.88H200.776L199.111 205.37H197.806Z" fill="#707070"/>
<path d="M176.75 142.209V161.167H138.833V123.25H152.429C152.565 121.327 153.025 119.513 153.729 117.834H138.833C135.854 117.834 133.417 120.271 133.417 123.25V161.167C133.417 164.146 135.854 166.584 138.833 166.584H176.75C179.729 166.584 182.167 164.146 182.167 161.167V147.625L176.75 142.209ZM172.688 155.75H142.896L150.344 146.19L155.652 152.582L163.1 142.994L172.688 155.75ZM180.271 131.077C181.463 129.182 182.167 126.988 182.167 124.604C182.167 117.861 176.723 112.417 169.979 112.417C163.235 112.417 157.792 117.861 157.792 124.604C157.792 131.348 163.235 136.792 169.952 136.792C172.335 136.792 174.556 136.088 176.425 134.896L184.875 143.346L188.721 139.5L180.271 131.077ZM169.979 131.375C168.184 131.375 166.461 130.662 165.192 129.392C163.922 128.122 163.208 126.4 163.208 124.604C163.208 122.809 163.922 121.087 165.192 119.817C166.461 118.547 168.184 117.834 169.979 117.834C171.775 117.834 173.497 118.547 174.767 119.817C176.037 121.087 176.75 122.809 176.75 124.604C176.75 126.4 176.037 128.122 174.767 129.392C173.497 130.662 171.775 131.375 169.979 131.375Z" fill="#BDBDBD"/>
</svg>
