<svg width="74" height="74" viewBox="0 0 74 74" fill="none" xmlns="http://www.w3.org/2000/svg">
<rect width="74" height="74" rx="10" fill="#F4F4F4"/>
<path d="M45.75 37.875V47.5H26.5V28.25H33.4025C33.4713 27.2738 33.705 26.3525 34.0625 25.5H26.5C24.9875 25.5 23.75 26.7375 23.75 28.25V47.5C23.75 49.0125 24.9875 50.25 26.5 50.25H45.75C47.2625 50.25 48.5 49.0125 48.5 47.5V40.625L45.75 37.875ZM43.6875 44.75H28.5625L32.3438 39.8963L35.0388 43.1412L38.82 38.2737L43.6875 44.75ZM47.5375 32.2238C48.1425 31.2613 48.5 30.1475 48.5 28.9375C48.5 25.5137 45.7363 22.75 42.3125 22.75C38.8887 22.75 36.125 25.5137 36.125 28.9375C36.125 32.3613 38.8887 35.125 42.2987 35.125C43.5087 35.125 44.6362 34.7675 45.585 34.1625L49.875 38.4525L51.8275 36.5L47.5375 32.2238ZM42.3125 32.375C41.4008 32.375 40.5265 32.0128 39.8818 31.3682C39.2372 30.7235 38.875 29.8492 38.875 28.9375C38.875 28.0258 39.2372 27.1515 39.8818 26.5068C40.5265 25.8622 41.4008 25.5 42.3125 25.5C43.2242 25.5 44.0985 25.8622 44.7432 26.5068C45.3878 27.1515 45.75 28.0258 45.75 28.9375C45.75 29.8492 45.3878 30.7235 44.7432 31.3682C44.0985 32.0128 43.2242 32.375 42.3125 32.375Z" fill="#BDBDBD"/>
</svg>
